<svg xmlns="http://www.w3.org/2000/svg" width="40" height="40" viewBox="0 0 40 40"><path fill="#858E98" d="M39.659 19.937c0 10.882-8.819 19.701-19.701 19.701C9.081 39.638.259 30.819.259 19.937.259 9.059 9.081.238 19.958.238c10.881 0 19.701 8.821 19.701 19.699z"/><path fill="#fff" d="M24.746 9.824c0-2.502-2.147-4.335-4.794-4.335-2.64 0-4.782 1.833-4.782 4.335v11.259c0 2.497 2.143 4.33 4.782 4.33 2.646 0 4.794-1.833 4.794-4.33V9.824z"/><path fill="#fff" d="M26.563 15.698v5.6c0 3.319-2.904 5.924-6.611 5.924-3.7 0-6.604-2.604-6.604-5.924v-5.6h-1.544v5.6c0 3.733 3.286 7.106 7.315 7.344v4.433H14.3v1.549h11.446v-1.549H20.71v-4.433c4.028-.237 7.444-3.61 7.444-7.344v-5.6h-1.591z"/></svg>