<svg data-name="Layer 1" xmlns="http://www.w3.org/2000/svg" viewBox="0 0 8 10"><title>icon-replay</title><path d="M7.885 5.514v.047A3.886 3.886 0 0 1 4 9.293 3.886 3.886 0 0 1 .396 3.955a3.906 3.906 0 0 1 1.91-2.045 3.779 3.779 0 0 1 1.413-.38l-.61-.657a.317.317 0 0 1-.088-.24A.328.328 0 0 1 3.127.4l.334-.305A.308.308 0 0 1 3.701 0a.32.32 0 0 1 .235.112L5.6 1.899a.332.332 0 0 1 .105.252v.006a.325.325 0 0 1-.105.246L3.936 4.196A.328.328 0 0 1 3.7 4.3a.317.317 0 0 1-.24-.088l-.334-.304a.346.346 0 0 1-.105-.238.333.333 0 0 1 .087-.243l.721-.773a2.766 2.766 0 0 0-.902.21 2.645 2.645 0 0 0-.88.59 2.798 2.798 0 0 0-.59.875A2.754 2.754 0 0 0 1.24 5.41a2.712 2.712 0 0 0 .217 1.072 2.765 2.765 0 0 0 1.47 1.47 2.76 2.76 0 0 0 2.145 0 2.78 2.78 0 0 0 .882-.591 2.645 2.645 0 0 0 .589-.88A2.712 2.712 0 0 0 6.76 5.41h.006v-.112a.318.318 0 0 1 .1-.237.326.326 0 0 1 .234-.097h.45a.33.33 0 0 1 .335.334v.217z"/></svg>