<svg xmlns="http://www.w3.org/2000/svg" width="40" height="40" viewBox="0 0 40 40"><path fill="#FBB02B" d="M.3 20C.3 30.9 9.1 39.7 20 39.7c10.9 0 19.7-8.8 19.7-19.7C39.7 9.1 30.9.3 20 .3 9.1.3.3 9.1.3 20z"/><path fill="#FFF" d="M22.8 32.1c.4 0 .7-.3.7-.699 0-.4-.3-.7-.7-.7h-5.6c-.4 0-.7.3-.7.7 0 .399.3.699.7.699h5.6zM22.1 34.2c.4 0 .7-.3.7-.7s-.3-.7-.7-.7h-4.3c-.4 0-.7.3-.7.7s.3.7.7.7h4.3zM21.4 36.3c.399 0 .699-.3.699-.7 0-.399-.3-.699-.699-.699h-2.8c-.4 0-.7.3-.7.699 0 .4.3.7.7.7h2.8zM22.1 30.002c.7 0 1.301-.599 1.301-1.299 0-1.6.506-3.734 3.8-6.903 0 0 3-2.7 3-7.3 0-5.7-4.601-10.3-10.3-10.3S9.7 8.9 9.7 14.6c0 4.6 3 7.3 3 7.3 3.2 3.1 3.8 5.1 3.8 6.8 0 .7.6 1.302 1.3 1.302h4.3z"/><g><path fill="#FBB02B" d="M20.7 17h3.9c.4 0 .7-.3.7-.7 0-.4-.3-.7-.7-.7h-9.3c-.4 0-.7.3-.7.7 0 .4.3.7.7.7h3.9v10c0 .4.3.7.7.7s.7-.3.7-.7V17h.1z"/></g></svg>