<svg width="600" height="600" viewBox="0 0 600 600" xmlns="http://www.w3.org/2000/svg" xmlns:xlink="http://www.w3.org/1999/xlink">
    <path id="Rounded-Rectangle-copy-1" fill="#000000" fill-rule="evenodd" stroke="none" d="M 60.955078 123 C 66.698776 87.283081 97.66346 60 135 60 L 465 60 C 502.336517 60 533.301208 87.283081 539.044922 123 L 60.955078 123 Z"/>
    <path id="Rounded-Rectangle-copy-2" fill="#000000" fill-rule="evenodd" stroke="none" d="M 134 540 C 97.013046 540 66.281151 513.224365 60.125 478 L 537.875 478 C 531.718872 513.224365 500.986938 540 464 540 L 134 540 Z"/>
    <path id="Rounded-Rectangle-copy" fill="none" stroke="#000000" stroke-width="40" stroke-linecap="round" stroke-linejoin="round" d="M 135 60 C 93.579002 60 60 93.57901 60 135 L 60 465 C 60 506.42099 93.579002 540 135 540 L 465 540 C 506.42099 540 540 506.42099 540 465 L 540 135 C 540 93.57901 506.42099 60 465 60 Z"/>
    <path id="Shape" fill="#000000" fill-rule="evenodd" stroke="none" d="M 79 486 L 79 117 L 526 117 L 526 486 L 79 486 Z M 210.982422 464 C 212.677399 464 215.548279 463.379456 217.363281 462.621094 C 219.178253 461.862732 221.588501 460.065765 222.71875 458.628906 C 223.848984 457.192017 225.057587 454.504395 225.404297 452.65625 C 225.751007 450.808105 225.35321 445.96759 224.519531 441.898438 C 223.685883 437.829285 222.301224 431.575012 221.443359 428 C 220.585495 424.424988 219.177582 419.024994 218.314453 416 C 217.451324 412.975006 215.395187 408.536316 213.746094 406.136719 C 211.625992 403.051758 209.101898 401.001404 205.125 399.136719 C 199.528595 396.512695 199.361053 396.499359 171.5 396.1875 C 146.887695 395.912018 142.774078 396.090698 137.5 397.666016 C 133.052216 398.994568 130.412323 400.575104 127.292969 403.777344 C 124.210052 406.942169 122.528366 409.889038 121.003906 414.798828 C 119.859482 418.484619 117.431358 427.873169 115.609375 435.662109 C 112.660362 448.269104 112.434319 450.225281 113.552734 453.478516 C 114.243721 455.488464 115.639496 458.064392 116.654297 459.203125 C 117.66909 460.341858 119.849998 461.869324 121.5 462.597656 C 123.150002 463.325989 125.984016 463.939392 127.798828 463.960938 C 129.613632 463.982483 132.363312 463.345764 133.908203 462.546875 C 135.453079 461.747986 138.564377 458.14801 140.822266 454.546875 C 144.927521 447.99939 144.927612 448 169.5 448 C 194.072388 448 194.072479 447.99939 198.177734 454.546875 C 200.435623 458.14801 203.546921 461.747986 205.091797 462.546875 C 206.636688 463.345764 209.287445 464 210.982422 464 Z M 312.332031 428.660156 L 489.953125 428.660156 L 489.953125 412.064453 L 312.332031 412.064453 L 312.332031 428.660156 Z M 127.410156 331.6875 C 127.913147 331.688599 128.405151 331.668304 128.871094 331.625 C 132.03508 331.331024 134.006744 330.42865 136.007813 328.359375 C 137.528503 326.786865 140.325012 323.25 142.220703 320.5 C 145.667419 315.5 145.665817 315.5 169.568359 315.5 C 193.470901 315.5 193.471268 315.500793 196.720703 320.466797 C 198.507904 323.19812 201.335205 326.798096 203.003906 328.466797 C 205.620514 331.083435 206.769318 331.5 211.347656 331.5 C 215.590057 331.5 217.375015 330.951477 220.238281 328.767578 C 222.353363 327.154327 224.475845 324.286621 225.417969 321.767578 C 226.953201 317.662659 226.899506 317.005615 224.025391 304.5 C 222.382141 297.350006 220.021118 287.899994 218.779297 283.5 C 216.890594 276.807953 215.77919 274.75119 211.978516 270.919922 C 208.342056 267.254211 206.143204 265.991516 200.966797 264.59375 C 195.376709 263.084229 190.701141 262.891632 166.5 263.173828 C 139.50943 263.488556 138.32814 263.58429 133.751953 265.837891 C 131.14093 267.123779 127.505554 269.928101 125.671875 272.070313 C 123.640289 274.443787 121.651375 278.413513 120.580078 282.232422 C 119.613144 285.679321 118.015526 291.649994 117.03125 295.5 C 116.046967 299.350006 114.494896 305.814941 113.582031 309.867188 C 112.285637 315.621857 112.161789 317.961609 113.017578 320.554688 C 113.620186 322.380615 115.063118 325.080566 116.222656 326.554688 C 117.382202 328.028809 119.719368 329.864136 121.416016 330.632813 C 122.840759 331.278351 125.230545 331.68277 127.410156 331.6875 Z M 312.332031 296.660156 L 489.953125 296.660156 L 489.953125 280.064453 L 312.332031 280.064453 L 312.332031 296.660156 Z M 128.123047 206.414063 C 128.826538 206.421783 129.484375 206.376038 130 206.271484 C 131.375 205.992676 133.966812 204.342926 135.759766 202.605469 C 137.552704 200.868011 140.483582 197.208069 142.273438 194.472656 C 145.52774 189.499237 145.528427 189.5 169.5 189.5 C 193.471573 189.5 193.472275 189.499237 196.726563 194.472656 C 198.516449 197.208069 201.515472 200.982269 203.392578 202.859375 C 206.164337 205.631134 207.575409 206.273438 210.898438 206.273438 C 213.673065 206.273438 216.308044 205.401459 219.083984 203.564453 C 221.760193 201.793427 223.866287 199.294739 225.169922 196.347656 C 227.103851 191.975677 227.114532 191.608063 225.478516 184.169922 C 224.550735 179.951752 223.137527 173.799988 222.337891 170.5 C 221.538269 167.200012 219.932678 161.20163 218.771484 157.169922 C 217.183685 151.656921 215.61142 148.671661 212.429688 145.132813 C 209.26355 141.611298 206.831207 139.99765 202.761719 138.714844 C 198.169968 137.267426 192.995544 137 169.5 137 C 146.004456 137 140.830032 137.267426 136.238281 138.714844 C 132.175293 139.995605 129.736481 141.611511 126.589844 145.111328 C 123.250389 148.825592 121.840553 151.629059 119.779297 158.648438 C 118.349625 163.516998 115.945328 172.767792 114.4375 179.207031 C 111.741798 190.719116 111.725311 190.991302 113.4375 195.474609 C 114.449402 198.124237 116.579178 201.102966 118.523438 202.585938 C 120.363571 203.989471 123.137291 205.507813 124.685547 205.958984 C 125.653214 206.240967 126.950569 206.401184 128.123047 206.414063 Z M 312.332031 170.660156 L 489.953125 170.660156 L 489.953125 154.064453 L 312.332031 154.064453 L 312.332031 170.660156 Z"/>
</svg>
