<svg xmlns="http://www.w3.org/2000/svg" width="40" height="40" viewBox="-0.3 0.3 40 40"><g fill="#95D600"><path d="M26.244 20.306a6.542 6.542 0 0 1-6.54 6.542c-3.622 0-6.555-2.926-6.555-6.542a6.556 6.556 0 0 1 6.555-6.553c3.608-.001 6.54 2.938 6.54 6.553"/><path d="M19.704 40C8.84 40 0 31.166 0 20.306 0 9.44 8.84.6 19.704.6 30.564.6 39.4 9.44 39.4 20.306 39.4 31.166 30.564 40 19.704 40zm0-33.117c-7.4 0-13.416 6.021-13.416 13.422 0 7.396 6.016 13.413 13.416 13.413 7.396 0 13.407-6.018 13.407-13.413 0-7.401-6.011-13.422-13.407-13.422z"/></g></svg>