<?xml version="1.0" encoding="utf-8"?>
<!-- Generator: Adobe Illustrator 22.0.1, SVG Export Plug-In . SVG Version: 6.00 Build 0)  -->
<svg version="1.1" id="Layer_1" xmlns="http://www.w3.org/2000/svg" xmlns:xlink="http://www.w3.org/1999/xlink" x="0px" y="0px"
	 viewBox="0 0 40 40" style="enable-background:new 0 0 40 40;" xml:space="preserve">
<style type="text/css">
	.st0{fill:#3693D0;}
	.st1{fill:#FFFFFF;}
</style>
<path class="st0" d="M0.3,20c0,10.9,8.8,19.7,19.7,19.7S39.7,30.9,39.7,20S30.9,0.3,20,0.3S0.3,9.1,0.3,20z"/>
<path class="st1" d="M22.8,32.1c0.4,0,0.7-0.3,0.7-0.7c0-0.4-0.3-0.7-0.7-0.7h-5.6c-0.4,0-0.7,0.3-0.7,0.7c0,0.4,0.3,0.7,0.7,0.7
	H22.8z M22.1,34.2c0.4,0,0.7-0.3,0.7-0.7s-0.3-0.7-0.7-0.7h-4.3c-0.4,0-0.7,0.3-0.7,0.7s0.3,0.7,0.7,0.7
	C17.8,34.2,22.1,34.2,22.1,34.2z M21.4,36.3c0.4,0,0.7-0.3,0.7-0.7c0-0.4-0.3-0.7-0.7-0.7h-2.8c-0.4,0-0.7,0.3-0.7,0.7
	c0,0.4,0.3,0.7,0.7,0.7H21.4z M22.1,30c0.7,0,1.3-0.6,1.3-1.3c0-1.6,0.5-3.7,3.8-6.9c0,0,3-2.7,3-7.3c0-5.7-4.6-10.3-10.3-10.3
	S9.7,8.9,9.7,14.6c0,4.6,3,7.3,3,7.3c3.2,3.1,3.8,5.1,3.8,6.8c0,0.7,0.6,1.3,1.3,1.3C17.8,30,22.1,30,22.1,30z"/>
<g>
	<path class="st0" d="M18.9,26.6c0-0.7,0.5-1.1,1.1-1.1c0.7,0,1.1,0.5,1.1,1.1c0,0.6-0.4,1.1-1.1,1.1C19.3,27.7,18.9,27.2,18.9,26.6
		z M19.3,23.9l-0.3-8.8h1.8l-0.3,8.8H19.3z"/>
</g>
</svg>
